<svg height="508pt" viewBox="-32 0 508 508.06225" width="508pt" xmlns="http://www.w3.org/2000/svg"><path d="m253.128906 199.941406c-1.480468-30.359375-8.820312-60.140625-21.617187-87.710937-1.238281-2.476563-1.3125-5.375-.195313-7.910157 1.113282-2.535156 3.296875-4.445312 5.960938-5.207031 19.875-5.679687 32.914062-14.492187 38.769531-26.1875 3.222656-6.683593 4.246094-14.21875 2.933594-21.519531-50.269531-4.527344-57.640625 29.070312-57.941407 30.558594-.929687 4.648437-5.199218 7.855468-9.921874 7.449218-.855469-.074218-1.703126-.148437-2.558594-.148437-40.730469-2.234375-64.707032 6.132813-73.878906 25.488281-2.523438 5.546875-3.054688 11.792969-1.507813 17.6875.4375 2.167969 1 4.304688 1.695313 6.402344 2.601562 2.695312 3.339843 6.683594 1.867187 10.128906-1.472656 3.441406-4.863281 5.671875-8.609375 5.652344-.625-.046875-1.246094-.144531-1.859375-.289062v.082031c-.503906-.105469-1.003906-.246094-1.488281-.417969-12.0625-3.046875-23.347656-8.601562-33.113282-16.308594-3.910156 5.527344-7.632812 11.171875-11.359374 17.15625-11.679688 22.035156-28.789063 40.730469-49.710938 54.308594-35.855469 21.515625-33.269531 26.523438-26.34375 39.890625l1.957031 3.824219c5.675781 11.359375 20.765625 41.539062 38.425781 44.40625 8.199219.5 16.109376-3.089844 21.132813-9.589844 40.96875-41.042969 72.0625-49.28125 108.925781-49.28125 30.332032-1.460938 58.714844-15.378906 78.4375-38.464844zm-218.09375 57.082032c-4.003906 0-16.1875 0-20.003906-9.214844-1.976562-5.671875-.355469-11.972656 4.113281-15.984375 2.664063-2.660157 6.667969-3.457031 10.144531-2.015625 3.476563 1.4375 5.746094 4.832031 5.746094 8.597656 5.140625 0 9.308594 4.167969 9.308594 9.308594s-4.167969 9.308594-9.308594 9.308594zm114.988282-76.742188c-1.289063-1.089844-2.253907-2.507812-2.792969-4.105469-2.773438-9.273437-1.769531-19.261719 2.792969-27.796875 7.023437-11.316406 18.535156-19.101562 31.648437-21.414062 4.992187-1.246094 10.046875 1.789062 11.292969 6.777344 1.246094 4.992187-1.789063 10.046874-6.777344 11.292968-7.957031 1.1875-15.09375 5.554688-19.773438 12.101563-1.570312 2.882812-2.300781 6.144531-2.113281 9.421875 2.160157-.136719 4.273438-.710938 6.199219-1.695313 4.601562-2.300781 10.195312-.4375 12.496094 4.160157 2.300781 4.601562.4375 10.195312-4.164063 12.496093-4.390625 2.28125-9.253906 3.503907-14.203125 3.574219-5.277344.125-10.4375-1.574219-14.605468-4.8125zm0 0"/><path d="m94.746094 111.375c3.585937 8.601562 10.492187 15.394531 19.15625 18.839844-.839844-8.011719.523437-16.105469 3.9375-23.402344 17.855468-37.691406 66.953125-37.328125 87.617187-36.304688 2.039063-4.703124 4.648438-9.136718 7.773438-13.199218-10.191407-10.566406-23.933594-16.988282-38.578125-18.023438-.695313 0-1.40625 0-2.101563 0-18.3125 0-37.292969 9.699219-56.460937 28.855469-11.988282 11.953125-25.433594 29.195313-21.34375 43.234375zm0 0"/><path d="m246.667969 244.726562c1.804687-5.296874 3.199219-10.722656 4.171875-16.234374-21.234375 16.808593-47.09375 26.738281-74.121094 28.457031 9.550781 13.632812 14.605469 29.902343 14.457031 46.546875 25.785157-11.140625 45.851563-32.390625 55.492188-58.769532zm0 0"/><path d="m102.925781 54.941406c1.070313-1.070312 2.152344-1.980468 3.222657-3.007812l-106.003907-51.933594 83.371094 79.40625c5.390625-8.957031 11.914063-17.179688 19.410156-24.464844zm0 0"/><path d="m251.089844 396.96875c11.78125-17.652344 26.898437-32.832031 44.5-44.683594 32.8125-23.898437 61.160156-44.535156 64.828125-85.078125 1.722656-26.355469-3.140625-52.726562-14.152344-76.734375-16.066406-36.441406-44.855469-65.785156-80.988281-82.542968-4.117188 2.210937-8.378906 4.140624-12.753906 5.78125 9.710937 23.273437 30.496093 83.558593 11.675781 137.207031-11.484375 31.832031-35.800781 57.378906-67.027344 70.421875-6.398437 2.976562-12.597656 6.359375-18.5625 10.128906-25.066406 15.175781-44.402344 38.222656-54.988281 65.546875-11.292969 30.457031-7.207032 75.160156 22.621094 98.015625 11.613281 8.183594 25.40625 12.71875 39.609374 13.03125-16.316406-28.859375-42.1875-93.027344 10.632813-145.847656 3.652344-3.527344 9.457031-3.476563 13.046875.117187 3.59375 3.589844 3.644531 9.394531.113281 13.046875-51.5625 51.5625-13.8125 115.574219-2.230469 132.480469 1.21875-.085937 2.363282-.121094 3.609376-.234375 10.519531-.867188 20.953124-2.539062 31.214843-5.007812 5.371094-1.25 10.816407-2.542969 16.058594-4.300782-8.941406-8.972656-14.714844-20.617187-16.441406-33.167968-5.769531-23.070313-2.464844-47.476563 9.234375-68.179688zm30.925781-101.347656c1.796875-1.128906 39.5625-26.066406 14.632813-100.820313-1.625-4.882812 1.019531-10.160156 5.902343-11.785156 4.882813-1.625 10.160157 1.019531 11.785157 5.902344 29.949218 89.832031-20.480469 121.335937-22.65625 122.628906-4.398438 2.664063-10.125 1.257813-12.789063-3.140625-2.660156-4.398438-1.253906-10.125 3.144531-12.785156zm0 0"/><path d="m378.09375 444.554688c-8.722656-3.980469-15.0625-11.832032-17.117188-21.195313-.628906-4.683594-.109374-9.453125 1.515626-13.890625 5.199218-12.976562 13.273437-24.609375 23.617187-34.015625 2.988281-3.136719 5.957031-6.253906 8.683594-9.464844 9.1875-10.5625 17.613281-21.761719 25.210937-33.515625 18.113282-27.640625 26.753906-60.417968 24.621094-93.398437-8.003906-104.121094-136.703125-143.453125-157.507812-149.140625-1.484376 1.964844-3.09375 3.828125-4.8125 5.585937 35.847656 19.410157 64.289062 50.101563 80.921874 87.320313 12.394532 26.898437 17.796876 56.492187 15.707032 86.035156-4.441406 48.9375-39.007813 74.109375-72.425782 98.441406-15.636718 10.484375-29.097656 23.890625-39.648437 39.480469-9.117187 16.796875-11.515625 36.429687-6.710937 54.925781.902343 9.917969 5.769531 19.050782 13.496093 25.328125 14.832031 8.328125 31.796875 12.066407 48.753907 10.734375-.660157-.558594-1.351563-1.042968-2-1.648437-16.878907-15.824219-21.851563-43.585938-14.765626-82.523438.917969-5.058593 5.765626-8.414062 10.824219-7.496093 5.0625.921874 8.414063 5.769531 7.496094 10.828124-5.800781 31.863282-2.625 54.550782 9.167969 65.601563 10.082031 7.558594 22.988281 10.28125 35.265625 7.445313 2.125-.5 4.359375-.226563 6.300781.773437 11.367188-2.8125 22.246094-7.324219 32.265625-13.386719 13.195313-7.996094 23.824219-19.605468 30.625-33.457031l-.929687.523437c-18.292969 9.738282-40.222657 9.78125-58.554688.109376zm0 0"/></svg>